<?xml version="1.0" encoding="UTF-8" standalone="no"?>
<svg
   viewBox="0 0 1086.1818 1086.1"
   version="1.1"
   id="svg12"
   sodipodi:docname="com.ete_sync_app.ete_sync_app-symbolic.svg"
   width="1086.1818"
   height="1086.1"
   inkscape:version="1.4 (e7c3feb100, 2024-10-09)"
   xmlns:inkscape="http://www.inkscape.org/namespaces/inkscape"
   xmlns:sodipodi="http://sodipodi.sourceforge.net/DTD/sodipodi-0.dtd"
   xmlns="http://www.w3.org/2000/svg"
   xmlns:svg="http://www.w3.org/2000/svg"
   xmlns:rdf="http://www.w3.org/1999/02/22-rdf-syntax-ns#"
   xmlns:cc="http://creativecommons.org/ns#"
   xmlns:dc="http://purl.org/dc/elements/1.1/">
  <sodipodi:namedview
     id="namedview12"
     pagecolor="#ffffff"
     bordercolor="#000000"
     borderopacity="0.25"
     inkscape:showpageshadow="2"
     inkscape:pageopacity="0.0"
     inkscape:pagecheckerboard="0"
     inkscape:deskcolor="#d1d1d1"
     inkscape:zoom="0.4235621"
     inkscape:cx="544.19411"
     inkscape:cy="864.09998"
     inkscape:window-width="1920"
     inkscape:window-height="935"
     inkscape:window-x="0"
     inkscape:window-y="32"
     inkscape:window-maximized="1"
     inkscape:current-layer="svg12" />
  <defs
     id="defs1">
    <style
       type="text/css"
       id="style1">.cls-1{fill:#f8bf34;}
   .cls-2{font-size:181.81px;fill:#231f20;font-family:Liberation Sans,GillSansInfantMT-Bold, Gill Sans Infant MT;font-weight:700;}
   .cls-3{font-size:116px;}
   .cls-4{letter-spacing:-0.12em;}
   .cls-5{letter-spacing:-0.06em;}
   .cls-6{font-size:117px;letter-spacing:-0.12em;}
   .cls-7{letter-spacing:0em;}
   .cls-8{letter-spacing:-0.15em;}
   .cls-9{letter-spacing:0em;}</style>
  </defs>
  <title
     id="title1">final-2-a</title>
  <rect
     class="cls-1"
     width="1033.5176"
     height="1086.1"
     rx="11.419032"
     fill="#f8bf34"
     id="rect1"
     x="0"
     y="0"
     style="stroke-width:0.773325" />
  <text
     class="cls-2"
     transform="scale(1.2305127,0.81266938)"
     fill="#231f20"
     font-family="Liberation Sans,GillSansInfantMT-Bold, Gill Sans Infant MT"
     font-weight="700"
     id="text11"
     x="101.84686"
     y="1039.8124"
     style="stroke-width:0.773325">THERE’S<tspan
   class="cls-3"
   font-size="116"
   id="tspan5"
   style="stroke-width:0.773325"><tspan
     x="20.253376"
     y="1147.4594"
     id="tspan1"
     style="stroke-width:0.773325">A PHABRIC</tspan><tspan
     class="cls-4"
     x="541.18817"
     y="1147.4594"
     letter-spacing="-.12em"
     id="tspan2"
     style="stroke-width:0.773325">A</tspan><tspan
     class="cls-5"
     x="600.448"
     y="1147.4594"
     letter-spacing="-.06em"
     id="tspan3"
     style="stroke-width:0.773325">T</tspan><tspan
     x="659.14343"
     y="1147.4594"
     id="tspan4"
     style="stroke-width:0.773325">OR</tspan></tspan><tspan
   font-size="90.479px"
   letter-spacing="-0.12em"
   id="tspan11"
   style="stroke-width:0.773325"><tspan
     class="cls-6"
     x="38.480637"
     y="1256.0341"
     id="tspan6"
     style="stroke-width:0.773325">T</tspan><tspan
     class="cls-7"
     x="92.690712"
     y="1256.0341"
     letter-spacing="0em"
     id="tspan7"
     style="stroke-width:0.773325">ASK FOR</tspan><tspan
     class="cls-9"
     x="514.82562"
     y="1256.0341"
     letter-spacing="0em"
     id="tspan8"
     style="stroke-width:0.773325">TH</tspan><tspan
     x="655.26892"
     y="1256.0341"
     id="tspan9"
     style="stroke-width:0.773325">A</tspan><tspan
     class="cls-9"
     x="715.03931"
     y="1256.0341"
     letter-spacing="0em"
     id="tspan10"
     style="stroke-width:0.773325">T</tspan></tspan></text>
  <ellipse
     cx="516.75879"
     cy="381.92609"
     id="circle11"
     rx="148.96127"
     ry="98.378716"
     style="stroke-width:0.773325" />
  <path
     d="m 159.86644,381.92611 c 0,130.09068 159.86646,235.67152 356.84479,235.67152 196.97829,0 356.84474,-105.58084 356.90184,-235.67152 C 873.67017,251.83544 713.74662,146.2546 516.75879,146.22318 319.77098,146.19178 159.91403,251.80402 159.86644,381.92611 Z m 601.93527,0 c 0,89.24095 -109.43241,162.14201 -245.15712,161.90948 -135.72471,-0.23253 -245.50918,-72.2726 -245.14759,-161.90948 0.36162,-89.63687 109.43239,-162.142 245.14759,-161.90318 135.71523,0.23881 245.50921,72.27259 245.15712,161.90318 z"
     id="path11"
     style="stroke-width:0.773325" />
  <path
     d="m 212.20368,351.1317 -136.029218,5.12822 v 51.33239 l 136.029218,5.30418 m 609.12925,-61.76479 136.01019,5.12822 v 51.33239 l -136.01019,5.30418 M 563.64342,180.77576 555.87849,90.950351 h -77.72555 l -8.00283,89.825409 m 93.49331,402.30071 -7.76493,89.82541 h -77.72555 l -8.00283,-89.82541 m -135.41069,-365.08346 -101.66745,-59.8857 -54.9541,36.29341 90.51486,67.24494 m 496.6042,240.66146 90.67665,67.14439 -54.95409,36.29341 -101.81971,-59.77258 m 66.09715,-284.42724 90.67665,-67.14438 -54.95409,-36.29341 -101.81971,59.77886 m -364.40036,327.97305 -101.66745,59.8857 -54.9541,-36.29341 90.51486,-67.24494 M 253.62622,276.52124 124.99083,246.90833 95.253762,294.33173 217.84658,333.58517 m 598.25264,96.82643 122.67847,39.11519 -29.73707,47.42339 -128.74007,-29.4935 M 676.57768,207.9754 721.44495,123.02682 649.6573,103.38124 590.21171,184.3454 m -146.60134,395.0923 -59.23621,81.02072 -71.79718,-19.63929 44.6484,-84.99886 m 86.38499,-371.41202 -59.23621,-81.02701 -71.79718,19.64558 44.6484,84.99257 m 319.3523,347.85744 44.86727,84.95487 -71.79716,19.63929 -59.43608,-80.96416 M 816.09922,333.44691 938.77769,294.33173 909.04062,246.90833 780.30055,276.39555 M 253.62622,487.31213 124.99083,516.95018 95.253762,469.52679 217.84658,430.26706"
     id="path12"
     style="stroke-width:0.773325" />
  <metadata
     id="metadata12">
    <rdf:RDF>
      <cc:Work
         rdf:about="">
        <dc:title>final-2-a</dc:title>
      </cc:Work>
    </rdf:RDF>
  </metadata>
</svg>
