<?xml version="1.0" encoding="UTF-8" standalone="no"?>
<svg
   width="900"
   height="900"
   viewBox="0 0 900 900"
   version="1.1"
   xml:space="preserve"
   id="SVGRoot"
   xmlns="http://www.w3.org/2000/svg"
   xmlns:svg="http://www.w3.org/2000/svg"><defs
   id="defs2" />

<style
   type="text/css"
   id="style1">
g.prefab path {
  vector-effect:non-scaling-stroke;
  -inkscape-stroke:hairline;
  fill: none;
  fill-opacity: 1;
  stroke-opacity: 1;
  stroke: #00349c;
}
</style>
<g
   style="fill:#ffffff;stroke:#000000;stroke-width:2"
   class="prefab"
   id="g2">
  <path
   d="M 853.57143,50.000001 H 53.571427 V 138.88889 H 853.57143 Z m 0,177.777779 H 53.571427 v 88.88889 H 853.57143 Z m 0,177.77778 H 53.571427 v 88.88889 H 853.57143 Z m 0,177.77777 H 53.571427 v 88.88889 H 853.57143 Z m 0,177.77778 H 53.571427 V 850 H 853.57143 Z M 53.571427,50 V 850 H 142.46032 V 50 Z M 231.34921,50 V 850 H 320.2381 V 50 Z m 177.77778,0 v 800 h 88.88888 V 50 Z m 177.77777,0 v 800 h 88.88889 V 50 Z m 177.77778,0 v 800 h 88.88889 V 50 Z"
   id="path1" />
  <path
   d="M 450,50 A 400,400 0 0 0 50,450 400,400 0 0 0 450,850 400,400 0 0 0 850,450 400,400 0 0 0 450,50 Z m 0,88.88867 A 311.11111,311.11111 0 0 1 761.11133,450 311.11111,311.11111 0 0 1 450,761.11133 311.11111,311.11111 0 0 1 138.88867,450 311.11111,311.11111 0 0 1 450,138.88867 Z m 0,88.88867 A 222.22223,222.22223 0 0 0 227.77734,450 222.22223,222.22223 0 0 0 450,672.22266 222.22223,222.22223 0 0 0 672.22266,450 222.22223,222.22223 0 0 0 450,227.77734 Z m 0,88.88868 A 133.33333,133.33333 0 0 1 583.33398,450 133.33333,133.33333 0 0 1 450,583.33398 133.33333,133.33333 0 0 1 316.66602,450 133.33333,133.33333 0 0 1 450,316.66602 Z m 0,88.88867 A 44.444447,44.444447 0 0 0 405.55469,450 44.444447,44.444447 0 0 0 450,494.44531 44.444447,44.444447 0 0 0 494.44531,450 44.444447,44.444447 0 0 0 450,405.55469 Z"
   id="path2" />
</g>
<path
   style="fill:#000000"
   id="path3"
   d="m 480.73773,468.44261 -90.0572,-25.66227 -72.19475,59.63864 -3.42293,-93.57955 -79.02913,-50.23194 87.94171,-32.17308 23.35207,-90.68368 57.77389,73.6955 93.4615,-5.81366 -52.23548,77.7194 z"
   transform="translate(170.90164,-65.163934)" /><path
   style="fill:#00aa00;stroke-width:1.22951"
   d="m 320.90164,293.33213 v -22.65149 l 8.29918,-5.46968 c 11.93269,-7.86439 25.10575,-14.80588 37.80738,-19.92245 11.47776,-4.62357 35.0129,-11.68195 38.95174,-11.68195 2.14323,0 2.25134,2.03785 2.18501,41.18852 l -0.0698,41.18853 H 364.4884 320.90164 Z"
   id="path4" /><path
   style="fill:#00aa00;stroke-width:1.22951"
   d="m 234.05517,402.35656 c 0.33788,-1.1834 1.81736,-6.54678 3.28774,-11.91862 5.70036,-20.82559 15.89003,-43.10032 28.2893,-61.84072 l 6.70386,-10.13229 23.05327,-0.0111 23.05328,-0.0112 v 43.03279 43.03279 h -42.50088 c -39.89139,0 -42.46317,-0.13211 -41.88657,-2.15164 z"
   id="path5" /><path
   style="fill:#00aa00;stroke-width:1.22951"
   d="m 328.95332,397.43852 c 13.77124,-31.37914 41.16832,-57.82916 72.78848,-70.27233 l 6.45492,-2.54014 v 39.94107 39.94108 H 367.0237 325.85068 Z"
   id="path6" /><path
   style="fill:#00aa00;stroke-width:1.22951"
   d="m 322.90792,485.88245 c -2.90426,-10.35069 -2.90426,-61.41421 0,-71.7649 l 2.00628,-7.15034 h 41.64126 41.64126 l -0.0133,11.98771 c -0.008,7.05674 -0.76644,14.47035 -1.84426,18.02327 -1.00702,3.31957 -1.83095,9.17938 -1.83095,13.02181 0,3.84243 0.82393,9.70224 1.83095,13.02181 1.07782,3.55292 1.83643,10.96653 1.84426,18.02327 l 0.0133,11.98771 H 366.55546 324.9142 Z"
   id="path7" /><path
   style="fill:#00aa00;stroke-width:1.22951"
   d="m 430.94262,580.75223 c -1.35246,-0.28594 -6.47028,-1.36605 -11.37295,-2.40025 l -8.91393,-1.88037 v -40.4899 -40.48991 h 43.03278 43.03279 v 39.16516 39.16515 l -8.91393,2.58101 c -4.90267,1.41955 -12.19691,3.15998 -16.20942,3.86763 -6.979,1.23081 -35.51279,1.56874 -40.65534,0.48148 z"
   id="path8" /><path
   style="fill:#00aa00;stroke-width:1.22951"
   d="M 499.18033,533.60656 V 495.4918 h 37.48449 37.4845 l -3.10264,7.06968 c -8.56629,19.51915 -24.9961,40.24429 -42.11519,53.12558 -8.0523,6.05897 -25.72185,16.03425 -28.40202,16.03425 -0.95017,0 -1.34914,-11.27134 -1.34914,-38.11475 z"
   id="path9" /><path
   style="fill:#00aa00;stroke-width:1.22951"
   d="m 499.24547,461.37295 0.0651,-31.65984 13.99277,-11.37295 13.99276,-11.37295 h 23.89483 23.89483 l 1.93438,7.06968 c 6.27925,22.9491 6.27925,48.97712 0,71.92622 l -1.93438,7.06968 h -37.95274 -37.95273 z"
   id="path10" /><path
   style="fill:#00aa00;stroke-width:1.22951"
   d="m 410.65574,364.03298 v -40.47522 l 8.91393,-2.03392 c 4.90267,-1.11865 12.52341,-2.33931 16.93498,-2.71257 l 8.02105,-0.67866 20.25764,12.899 20.25764,12.899 0.83242,17.07158 c 0.45782,9.38937 1.0111,23.01995 1.2295,30.29018 l 0.3971,13.21859 -38.42213,-0.001 -38.42213,-10e-4 z"
   id="path11" /><path
   style="fill:#00aa00;stroke-width:1.22951"
   d="m 410.65574,262.00532 v -29.34161 l 3.38115,-0.70119 c 1.85963,-0.38566 10.71772,-1.37473 19.68464,-2.19792 16.76027,-1.53866 37.1953,-0.53242 55.31536,2.72379 l 7.68442,1.38091 -0.0694,9.39732 c -0.0382,5.16852 -0.72977,11.27916 -1.53689,13.57918 -1.57321,4.48315 -0.22674,3.92476 -74.31585,30.81907 l -10.14344,3.68206 z"
   id="path12" /><path
   style="fill:#00aa00;stroke-width:1.22951"
   d="m 410.65574,184.56956 v -41.65994 l 3.38115,-0.75249 c 7.70933,-1.71574 48.17411,-2.27394 63.01229,-0.86924 8.45287,0.80022 16.33709,1.7419 17.52049,2.09261 1.99356,0.59082 2.15164,3.65767 2.15164,41.74334 v 41.10567 h -43.03279 -43.03278 z"
   id="path13" /><path
   style="fill:#00aa00;stroke-width:1.22951"
   d="m 320.90164,197.29237 v -28.93713 l 5.84016,-2.56098 c 18.5678,-8.14219 49.61508,-17.58328 67.93033,-20.65678 4.39549,-0.73761 9.23668,-1.61567 10.7582,-1.95124 l 2.76639,-0.61014 v 41.8267 41.82671 h -43.64754 -43.64754 z"
   id="path14" /><path
   style="fill:#00aa00;stroke-width:1.22951"
   d="M 320.90164,105.17644 V 72.647967 l 9.86591,-3.11664 C 352.43043,62.688026 379.6933,56.844791 404.20082,53.79242 l 3.9959,-0.497683 v 42.20509 42.205093 h -43.64754 -43.64754 z"
   id="path15" /><path
   style="fill:#00aa00;stroke-width:1.22951"
   d="m 232.37705,126.67635 v -11.02857 l 14.76917,-8.73967 c 16.35968,-9.680843 44.32975,-23.360165 59.88379,-29.28736 5.55708,-2.117642 10.39826,-3.850258 10.75819,-3.850258 0.35993,0 0.65442,14.385246 0.65442,31.967208 v 31.96722 h -43.03278 -43.03279 z"
   id="path16" /><path
   style="fill:#00aa00;stroke-width:1.22951"
   d="m 232.37705,182.67148 v -42.50755 h 43.03279 43.03278 l -0.0151,13.21722 -0.0151,13.21721 -13.19742,6.7623 c -16.6378,8.52512 -40.50733,24.38299 -54.12777,35.96013 -5.76989,4.9043 -12.34008,10.47871 -14.60043,12.38758 l -4.10971,3.47066 z"
   id="path17" /><path
   style="fill:#00aa00;stroke-width:1.22951"
   d="m 143.85246,210.36298 v -15.86653 l 10.24717,-11.49003 c 10.38378,-11.64321 25.6009,-26.49908 37.95136,-37.05041 l 6.7797,-5.79208 h 15.54367 15.54367 v 43.03279 43.03279 h -43.03278 -43.03279 z"
   id="path18" /><path
   style="fill:#00aa00;stroke-width:1.22951"
   d="m 143.85246,272.33607 v -43.64755 h 42.54829 42.5483 l -8.4821,9.52869 c -20.37059,22.88407 -35.28956,43.99253 -46.49154,65.77968 l -6.14754,11.95658 -11.98771,0.0151 -11.9877,0.0151 z"
   id="path19" /><path
   style="fill:#00aa00;stroke-width:1.22951"
   d="m 55.327869,397.98306 c 0,-11.93206 6.812779,-44.00542 14.414329,-67.86011 l 3.526163,-11.06557 34.062539,-0.32683 34.06254,-0.32683 v 43.05224 43.05224 H 98.360656 55.327869 Z"
   id="path20" /><path
   style="fill:#00aa00;stroke-width:1.22951"
   d="m 55.327869,450 v -43.03279 h 42.46221 42.462211 l -0.96631,11.37295 c -0.53147,6.25513 -0.96631,20.50205 -0.96631,31.65984 0,11.15779 0.43484,25.40471 0.96631,31.65984 l 0.96631,11.37295 H 97.790079 55.327869 Z"
   id="path21" /><path
   style="fill:#00aa00;stroke-width:1.22951"
   d="m 165.8398,573.2582 c -8.42788,-18.75449 -21.98734,-65.58727 -21.98734,-75.94171 0,-1.57849 5.80623,-1.82469 43.03279,-1.82469 h 43.03278 v 43.03279 43.03279 h -30.17437 -30.17437 z"
   id="path22" /><path
   style="fill:#00aa00;stroke-width:1.22951"
   d="m 164.97809,568.92214 c -8.7651,-22.00591 -19.89041,-60.38324 -19.89453,-68.62719 l -0.002,-3.18866 19.36475,-0.80315 c 10.65062,-0.44173 29.73873,-0.80499 42.41803,-0.80724 l 23.05328,-0.004 v 43.03279 43.03279 H 199.964 170.01038 Z"
   id="path23" /><path
   style="fill:#00aa00;stroke-width:1.22951"
   d="m 231.70181,627.04918 c 0,-24.00615 0.16469,-33.82684 0.36599,-21.82377 0.20129,12.00307 0.20129,31.64447 0,43.64754 -0.2013,12.00307 -0.36599,2.18238 -0.36599,-21.82377 z"
   id="path24" /><path
   style="fill:#00aa00;stroke-width:1.22951"
   d="m 304.10436,723.03501 c -21.38347,-11.29974 -42.80214,-26.3663 -63.73551,-44.83354 l -4.91803,-4.33865 41.4959,-0.0462 41.4959,-0.0462 v 28.27869 c 0,15.55328 -0.13832,28.26949 -0.30737,28.25824 -0.16906,-0.0113 -6.48296,-3.28383 -14.03089,-7.27241 z"
   id="path25" /><path
   style="fill:#00aa00;stroke-width:1.22951"
   d="m 400.20492,755.99358 c -23.4427,-4.22691 -54.53416,-13.3468 -72.3247,-21.21463 l -6.97858,-3.08626 v -28.9611 -28.9611 h 43.64754 43.64754 v 41.80328 c 0,22.9918 -0.41496,41.7414 -0.92213,41.66577 -0.50717,-0.0756 -3.68852,-0.63632 -7.06967,-1.24596 z"
   id="path28" /><path
   style="fill:#00aa00;stroke-width:1.22951"
   d="m 384.22131,751.87287 c -20.66972,-4.94343 -33.8726,-9.02453 -50.71721,-15.67702 l -12.60246,-4.97713 v -28.72411 -28.72412 h 43.64754 43.64754 v 11.48124 c 0,6.31467 -0.36513,24.84951 -0.81141,41.18852 -0.79454,29.08948 -0.86485,29.70565 -3.38115,29.62832 -1.41335,-0.0434 -10.31564,-1.9315 -19.78285,-4.1957 z"
   id="path29" /><path
   style="fill:#00aa00;stroke-width:1.22951"
   d="m 426.02459,759.01424 c -2.70492,-0.22465 -7.26947,-0.71882 -10.14344,-1.09816 l -5.22541,-0.6897 v -41.72795 -41.72794 h 43.03278 43.03279 v 41.1651 41.1651 l -2.76639,0.63781 c -10.3878,2.39495 -50.3681,3.73433 -67.93033,2.27574 z"
   id="path30" /><path
   style="fill:#00aa00;stroke-width:1.22951"
   d="m 499.18033,714.92828 v -41.15779 h 43.03278 43.03279 v 27.49284 27.49283 l -9.60141,4.38892 c -18.05638,8.25379 -51.56112,18.53326 -72.46826,22.23373 l -3.9959,0.70726 z"
   id="path31" /><path
   style="fill:#00aa00;stroke-width:1.22951"
   d="m 587.70492,700.20492 v -26.43443 l 38.42213,0.0183 38.42213,0.0183 -4.91803,4.32948 c -11.83658,10.42006 -27.8805,22.93995 -38.11476,29.7429 -10.48223,6.96779 -31.21936,18.75989 -32.9904,18.75989 -0.45159,0 -0.82107,-11.89549 -0.82107,-26.43442 z"
   id="path32" /><path
   style="fill:#00aa00;stroke-width:1.22951"
   d="m 587.70492,648.79806 v -22.51341 l 10.32636,-8.9635 c 9.17613,-7.96508 26.74152,-26.82175 29.3847,-31.54484 0.80045,-1.43032 5.34842,-1.75992 24.28446,-1.75992 H 675 v 39.71783 39.71783 l -4.05443,3.92971 -4.05444,3.92972 h -39.59311 -39.5931 z"
   id="path33" /><path
   style="fill:#00aa00;stroke-width:1.22951"
   d="m 677.45902,621.73071 v -37.71432 h 25.92614 25.92615 l -6.81706,12.88009 c -10.66934,20.15858 -31.70857,50.11127 -41.84137,59.56784 l -3.19386,2.98071 z"
   id="path34" /><path
   style="fill:#00aa00;stroke-width:1.22951"
   d="M 677.45902,538.52459 V 495.4918 h 39.34426 c 33.96545,0 39.34426,0.24946 39.34426,1.82469 0,10.13601 -13.91491,58.40985 -21.89015,75.94171 l -3.7753,8.29918 h -26.51154 -26.51153 z"
   id="path35" /><path
   style="fill:#00aa00;stroke-width:1.22951"
   d="m 677.45902,450 v -43.03279 h 39.85411 39.85412 l 1.02703,9.52869 c 1.32627,12.305 1.32627,54.7032 0,67.0082 l -1.02703,9.52869 h -39.85412 -39.85411 z"
   id="path36" /><path
   style="fill:#00aa00;stroke-width:1.22951"
   d="m 677.45902,361.47541 v -43.03279 h 26.51153 26.51154 l 3.7753,8.29918 c 7.97524,17.53186 21.89015,65.8057 21.89015,75.94171 0,1.57523 -5.37881,1.82469 -39.34426,1.82469 h -39.34426 z"
   id="path37" /><path
   style="fill:#00aa00;stroke-width:1.22951"
   d="m 765.98361,361.45393 v -43.05426 l 30.31704,0.32885 30.31704,0.32886 2.94049,8.60655 c 5.80176,16.98119 16.34346,65.03927 16.34346,74.50743 0,2.24818 -1.51608,2.33684 -39.95902,2.33684 h -39.95901 z"
   id="path38" /><path
   style="fill:#00aa00;stroke-width:1.22951"
   d="m 765.98361,272.33607 v -43.64755 h 7.91734 7.91734 l 7.06404,11.37296 c 9.91452,15.96216 23.84635,43.27533 30.49013,59.77545 3.09515,7.68696 5.62754,14.46462 5.62754,15.06148 0,0.59711 -13.27174,1.0852 -29.5082,1.0852 h -29.50819 z"
   id="path39" /><path
   style="fill:#00aa00;stroke-width:1.22951"
   d="m 726.02459,303.99961 c -8.3208,-16.17974 -25.32163,-41.31688 -38.0457,-56.25371 -7.56862,-8.88483 -10.48008,-13.2329 -10.49677,-15.67623 l -0.0231,-3.38115 h 43.03278 43.03279 v 43.64755 43.64754 l -15.67623,-0.0151 -15.67623,-0.0151 z"
   id="path40" /><path
   style="fill:#00aa00;stroke-width:1.22951"
   d="m 677.45902,183.19672 v -43.03279 h 11.80357 11.80357 l 11.24971,9.68068 c 13.2026,11.36119 34.13508,32.77885 44.14521,45.16841 l 7.06351,8.74253 v 11.23698 11.23698 H 720.4918 677.45902 Z"
   id="path41" /><path
   style="fill:#00aa00;stroke-width:1.22951"
   d="m 658.40164,217.37539 c -18.82736,-16.67958 -44.35277,-34.44027 -63.09268,-43.90015 l -7.60404,-3.83851 v -14.7364 -14.7364 H 631.35246 675 v 43.03279 43.03279 l -3.38115,-0.0701 c -2.38911,-0.0495 -6.26708,-2.62678 -13.21721,-8.78406 z"
   id="path42" /><path
   style="fill:#00aa00;stroke-width:1.22951"
   d="M 587.70492,106.88436 V 76.063801 l 2.76639,0.838302 c 14.22758,4.311392 49.53056,21.793745 70.38935,34.857427 l 13.52459,8.47034 0.36124,8.73752 0.36124,8.73753 h -43.70141 -43.7014 z"
   id="path43" /><path
   style="fill:#00aa00;stroke-width:1.22951"
   d="M 499.18033,95.845927 V 53.986935 l 3.9959,0.650951 c 29.29593,4.772446 47.6416,8.978215 68.58957,15.72425 l 12.86535,4.143126 0.32813,31.599828 0.32814,31.59983 h -43.05355 -43.05354 z"
   id="path44" /><path
   style="fill:#00aa00;stroke-width:1.22951"
   d="m 410.65574,95.401629 v -42.30329 l 11.9877,-0.90146 c 13.06307,-0.982326 66.84263,0.05196 71.31148,1.371458 l 2.76639,0.816822 v 41.659879 41.659882 h -43.03279 -43.03278 z"
   id="path45" /><path
   style="fill:#00aa00;stroke-width:1.22951"
   d="m 232.37705,272.33607 v -43.64755 h 43.03279 43.03278 v 20.1484 20.14839 l -8.54992,6.90803 c -10.20626,8.24627 -27.84766,25.89031 -34.15198,34.15708 l -4.5247,5.93319 h -19.41949 -19.41948 z"
   id="path46" /><path
   style="fill:#00aa00;stroke-width:1.22951"
   d="m 240.36885,221.79853 c 23.6863,-20.89585 53.83079,-41.30567 74.69263,-50.57188 l 3.38114,-1.5018 v 28.25233 28.25233 l -41.4959,-0.0462 -41.4959,-0.0462 z"
   id="path47" /><path
   style="fill:#00aa00;stroke-width:1.22951"
   d="m 320.90164,152.45902 v -12.29509 l 42.72541,0.16744 c 23.49897,0.0921 41.34221,0.40612 39.65164,0.69784 -24.89703,4.29619 -46.88528,10.2859 -67.20752,18.30767 -7.54816,2.97947 -14.04918,5.41722 -14.44673,5.41722 -0.39754,0 -0.7228,-5.53279 -0.7228,-12.29508 z"
   id="path48" /><path
   style="fill:#00aa00;stroke-width:1.22951"
   d="m 75,314.68004 c 0,-2.32328 10.733064,-27.58566 17.279341,-40.67033 7.209401,-14.41013 13.937149,-26.39513 21.127309,-37.63676 l 4.91497,-7.68443 h 11.53591 11.53591 v 43.64755 43.64754 H 108.19672 C 85.627902,315.98361 75,315.56627 75,314.68004 Z"
   id="path49" /><path
   style="fill:#00aa00;stroke-width:1.22951"
   d="m 121.22952,224.69262 c 1.73876,-3.02687 9.71196,-13.94989 14.8906,-20.39959 l 5.27332,-6.56762 v 14.25205 14.25205 h -10.52338 c -8.06988,0 -10.31755,-0.35832 -9.64054,-1.53689 z"
   id="path50" /><path
   style="fill:#00aa00;stroke-width:1.22951"
   d="m 203.54508,136.62778 c 2.19887,-2.02776 21.79785,-16.23299 24.08693,-17.45807 2.1402,-1.1454 2.28602,-0.59324 2.28602,8.65588 v 9.87933 h -13.77049 c -7.95089,0 -13.27686,-0.45522 -12.60246,-1.07714 z"
   id="path51" /><path
   style="fill:#00aa00;stroke-width:1.22951"
   d="m 683.3404,139.25606 c 3.57287,-0.24915 9.10566,-0.24653 12.29508,0.006 3.18942,0.25235 0.26616,0.4562 -6.49614,0.453 -6.76229,-0.003 -9.37182,-0.20967 -5.79894,-0.45882 z"
   id="path52" /><path
   style="fill:#00aa00;stroke-width:1.22951"
   d="m 765.98361,216.7623 c 0,-5.20697 0.45483,-8.9416 1.01073,-8.29919 2.1145,2.44358 8.5398,11.14434 10.62316,14.38525 l 2.17351,3.38115 h -6.9037 -6.9037 z"
   id="path53" /><path
   style="fill:#00aa00;stroke-width:1.22951"
   d="m 677.45902,130.25531 c 0,-5.62235 0.37697,-7.22779 1.53688,-6.54524 1.69048,0.99475 15.59478,11.31946 17.45902,12.96429 0.64242,0.56681 -3.36885,1.03056 -8.91394,1.03056 h -10.08196 z"
   id="path54" /><path
   style="fill:#00aa00;stroke-width:1.22951"
   d="m 765.98361,450 v -43.03279 h 40.38966 40.38966 l 0.79886,11.25446 c 1.02748,14.47514 1.02748,49.08152 0,63.55666 l -0.79886,11.25446 h -40.38966 -40.38966 z"
   id="path55" /><path
   style="fill:#00aa00;stroke-width:1.22951"
   d="m 757.02471,393.13525 c -3.0504,-17.11135 -9.86274,-40.7019 -16.80476,-58.19354 -3.41196,-8.59702 -6.20356,-15.82627 -6.20356,-16.06501 0,-0.23874 6.63935,-0.43408 14.7541,-0.43408 h 14.7541 v 43.03279 c 0,40.784 -0.11686,43.03279 -2.23622,43.03279 -1.85467,0 -2.58216,-1.94051 -4.26366,-11.37295 z"
   id="path56" /><path
   style="fill:#00aa00;stroke-width:1.22951"
   d="m 765.98361,450 v -43.03279 h 39.80532 39.80533 l 0.76844,3.84222 c 1.00113,5.00564 1.00113,73.3755 0,78.38114 l -0.76844,3.84222 h -39.80533 -39.80532 z"
   id="path57" /><path
   style="fill:#00aa00;stroke-width:1.22951"
   d="m 764.07886,450 c 0,-24.00615 0.16469,-33.82684 0.36599,-21.82377 0.20129,12.00307 0.20129,31.64447 0,43.64754 -0.2013,12.00307 -0.36599,2.18238 -0.36599,-21.82377 z"
   id="path58" /><path
   style="fill:#00aa00;stroke-width:1.22951"
   d="m 765.98361,450 v -43.03279 h 39.80532 39.80533 l 0.76844,3.84222 c 1.00113,5.00564 1.00113,73.3755 0,78.38114 l -0.76844,3.84222 h -39.80533 -39.80532 z"
   id="path59" /><path
   style="fill:#00aa00;stroke-width:1.22951"
   d="m 760.71402,481.65984 c 1.24245,-14.62299 1.24245,-48.69669 0,-63.31968 -0.83498,-9.82728 -0.70966,-11.37295 0.92213,-11.37295 1.66228,0 1.88844,5.15368 1.88844,43.03279 0,37.87911 -0.22616,43.03279 -1.88844,43.03279 -1.63179,0 -1.75711,-1.54567 -0.92213,-11.37295 z"
   id="path60" /><path
   style="fill:#00aa00;stroke-width:1.22951"
   d="M 765.98361,538.52459 V 495.4918 h 40.10068 40.10069 l -0.83343,7.06968 c -2.1457,18.20105 -12.29519,61.41325 -17.76008,75.61475 l -1.3011,3.38115 h -30.15338 -30.15338 z"
   id="path61" /><path
   style="fill:#00aa00;stroke-width:1.22951"
   d="m 765.98361,627.66393 v -43.64754 h 29.50819 c 16.8784,0 29.5082,0.47825 29.5082,1.11738 0,0.61456 -2.68976,7.72406 -5.97725,15.79889 -7.07673,17.38206 -20.22254,43.14018 -30.114,59.00586 l -7.09046,11.37296 h -7.91734 -7.91734 z"
   id="path62" /><path
   style="fill:#00aa00;stroke-width:1.22951"
   d="m 677.45902,667.92128 c 0,-2.36243 2.1119,-5.81024 6.96635,-11.37295 15.8993,-18.21905 32.2072,-42.0948 42.44893,-62.14782 l 5.29783,-10.373 15.67623,-0.006 15.67623,-0.006 v 43.64754 43.64755 H 720.4918 677.45902 Z"
   id="path63" /><path
   style="fill:#00aa00;stroke-width:1.22951"
   d="m 734.01639,581.1233 c 0,-0.23874 2.7916,-7.46799 6.20356,-16.06501 6.94202,-17.49164 13.75436,-41.08219 16.80476,-58.19354 1.6815,-9.43244 2.40899,-11.37295 4.26366,-11.37295 2.11936,0 2.23622,2.24879 2.23622,43.03279 v 43.03279 h -14.7541 c -8.11475,0 -14.7541,-0.19534 -14.7541,-0.43408 z"
   id="path64" /><path
   style="fill:#00aa00;stroke-width:1.22951"
   d="m 570.54877,162.09706 c -16.72505,-7.23632 -37.21241,-13.65002 -56.45995,-17.67515 -7.69172,-1.60853 -14.28496,-3.22461 -14.65164,-3.59129 -0.36668,-0.36668 18.79028,-0.66669 42.57102,-0.66669 h 43.2377 v 14.13935 c 0,7.77664 -0.13832,14.0825 -0.30738,14.01303 -0.16905,-0.0695 -6.64444,-2.86814 -14.38975,-6.21925 z"
   id="path65" /><path
   style="fill:#00aa00;stroke-width:1.22951"
   d="m 499.18033,185.04828 c 0,-38.81304 0.13257,-41.32258 2.15164,-40.72948 1.1834,0.34763 4.36475,0.9951 7.06967,1.43881 16.97283,2.78422 45.05894,11.55917 65.47131,20.45523 l 11.37295,4.95653 v 27.53007 27.53007 l -11.37295,-0.0542 -11.37295,-0.0542 -22.0226,-28.23056 c -12.11243,-15.52681 -22.23807,-28.01509 -22.50142,-27.75174 -0.26335,0.26335 -3.66299,12.8516 -7.55475,27.97388 -5.48542,21.31474 -7.54404,27.58521 -9.15842,27.89611 -1.92365,0.37047 -2.08248,-2.75365 -2.08248,-40.96048 z"
   id="path66" /><path
   style="fill:#00aa00;stroke-width:1.22951"
   d="m 587.70492,199.79508 c 0,-14.53893 0.41496,-26.42518 0.92213,-26.41388 1.96062,0.0437 21.353,11.06099 32.38198,18.39703 10.67536,7.10083 26.63666,19.5341 38.62212,30.08522 l 4.91803,4.32948 -38.42213,0.0183 -38.42213,0.0183 z"
   id="path67" /><path
   style="fill:#00aa00;stroke-width:1.22951"
   d="m 571.72131,237.7078 c -7.23601,-9.51532 -7.43551,-9.01928 3.62743,-9.01928 h 9.89716 v 7.37705 7.37705 l -4.61065,-0.038 c -4.01783,-0.0331 -5.16396,-0.76561 -8.91394,-5.69681 z"
   id="path68" /><path
   style="fill:#00aa00;stroke-width:1.22951"
   d="m 499.18033,230.53279 c 0,-1.01435 0.81255,-1.84427 1.80567,-1.84427 1.09991,0 1.52906,0.72085 1.09797,1.84427 -0.91588,2.38673 -2.90364,2.38673 -2.90364,0 z"
   id="path69" /><path
   style="fill:#00aa00;stroke-width:1.22951"
   d="m 488.11475,229.91803 c -4.0023,-0.84245 -3.85182,-0.91712 2.15164,-1.06765 3.59151,-0.0901 6.45492,0.38356 6.45492,1.06765 0,1.35968 -2.14698,1.35968 -8.60656,0 z"
   id="path70" /><path
   style="fill:#00aa00;stroke-width:1.22951"
   d="m 410.65574,185.11355 c 0,-31.54704 0.35768,-41.34552 1.53688,-42.10233 2.47007,-1.58526 58.30002,-2.00503 70.3665,-0.52905 6.01284,0.73549 11.34651,1.75964 11.8526,2.2759 0.50609,0.51626 1.31629,19.05853 1.80045,41.20504 l 0.8803,40.2664 H 453.8741 410.65574 Z"
   id="path72" /><path
   style="fill:#00aa00;stroke-width:1.22951"
   d="m 626.01059,312.29036 -2.73054,-3.69325 23.40096,-34.90759 c 12.87053,-19.19918 23.40096,-35.11592 23.40096,-35.37053 0,-0.3753 -40.61254,1.88727 -75.30738,4.19546 l -7.06967,0.47033 v -7.14813 -7.14813 h 39.71783 39.71782 l 3.92972,4.05444 3.92971,4.05443 v 39.59311 39.59311 h -23.12944 -23.12943 z"
   id="path73" /><path
   style="fill:#00aa00;stroke-width:1.22951"
   d="m 677.45902,277.89632 v -38.08728 l 4.69908,5.19794 c 14.16423,15.6679 29.79698,38.18389 40.33615,58.09654 l 6.81706,12.88009 h -25.92615 -25.92614 z"
   id="path75" /><path
   style="fill:#00aa00;stroke-width:1.22951"
   d="m 727.10398,304.75631 c -7.25363,-14.04437 -24.51214,-40.07156 -36.02828,-54.33349 -9.86674,-12.21926 -11.77744,-15.01641 -12.95676,-18.9679 l -0.82563,-2.7664 h 43.11564 43.11564 v 43.64755 43.64754 h -15.31097 -15.31097 z"
   id="path78" /><path
   style="fill:#00aa00;stroke-width:1.22951"
   d="m 667.65941,399.28279 c -5.84632,-23.72173 -19.10666,-54.46426 -31.28947,-72.54099 l -5.59323,-8.29918 H 652.88835 675 v 43.03279 43.03279 h -3.02638 c -2.53876,0 -3.23388,-0.84193 -4.31421,-5.22541 z"
   id="path80" /><path
   style="fill:#00aa00;stroke-width:1.22951"
   d="m 619.91843,313.5871 c 1.11139,-1.77962 1.9053,-2.05736 3.08419,-1.07896 2.48317,2.06085 1.874,3.47547 -1.49665,3.47547 -2.74959,0 -2.92182,-0.25999 -1.58754,-2.39651 z"
   id="path82" /><path
   style="fill:#00aa00;stroke-width:1.22951"
   d="m 587.70492,395.14349 c 0,-8.3183 0.24042,-9.30042 2.15164,-8.78932 1.1834,0.31647 15.30324,4.33492 31.37742,8.92991 16.07419,4.59498 29.55494,8.02536 29.95724,7.62306 0.40229,-0.40229 -6.52781,-19.15643 -15.40023,-41.67585 -8.87241,-22.51942 -16.12878,-41.35936 -16.12526,-41.86654 0.004,-0.50717 1.80456,-0.91711 4.0023,-0.91097 3.6214,0.0101 4.58199,0.90314 10.24942,9.52869 12.89969,19.63268 23.24018,42.07377 28.74664,62.38638 1.46653,5.40984 2.94286,10.80431 3.28074,11.98771 0.57594,2.01722 -1.84881,2.15164 -38.8128,2.15164 h -39.42711 z"
   id="path83" /><path
   style="fill:#00aa00;stroke-width:1.22951"
   d="m 587.70492,450 v -43.06685 l 39.64787,0.32441 39.64788,0.32441 1.66385,9.83606 c 2.18956,12.94394 2.18956,52.22 0,65.16394 l -1.66385,9.83606 -39.64788,0.32441 -39.64787,0.32441 z"
   id="path84" /><path
   style="fill:#00aa00;stroke-width:1.22951"
   d="m 671.04219,482.88934 c 2.3635,-13.55924 2.3635,-52.21944 0,-65.77868 l -1.7681,-10.14345 H 672.13705 675 V 450 493.03279 h -2.86295 -2.86296 z"
   id="path85" /><path
   style="fill:#00aa00;stroke-width:1.22951"
   d="m 636.36994,573.2582 c 12.18281,-18.07673 25.44315,-48.81926 31.28947,-72.54099 1.08033,-4.38348 1.77545,-5.22541 4.31421,-5.22541 H 675 v 43.03279 43.03279 h -22.11165 -22.11164 z"
   id="path86" /><path
   style="fill:#00aa00;stroke-width:1.22951"
   d="M 587.70492,538.52459 V 495.4918 h 39.21357 39.21357 l -1.15651,5.22541 c -5.15025,23.27035 -16.17008,48.64603 -30.96826,71.31148 l -6.22124,9.52869 h -20.04056 -20.04057 z"
   id="path87" /><path
   style="fill:#00aa00;stroke-width:1.22951"
   d="m 575.80683,402.35656 c -0.59094,-1.68334 -6.08179,-13.56659 -10.02219,-21.68992 -0.55535,-1.14487 2.15042,-0.62678 13.00634,2.49043 l 6.45492,1.85348 v 9.74882 9.74883 h -4.34187 c -3.02769,0 -4.57048,-0.65125 -5.0972,-2.15164 z"
   id="path88" /><path
   style="fill:#00aa00;stroke-width:1.22951"
   d="m 531.14754,404.06718 c 0,-0.36352 17.51278,-14.98611 27.79199,-23.20539 2.63431,-2.10641 2.71178,-2.03826 6.98731,6.14754 2.3779,4.55265 5.17949,10.35235 6.22574,12.88821 l 1.90227,4.61066 H 552.6012 c -11.79951,0 -21.45366,-0.19846 -21.45366,-0.44102 z"
   id="path89" /><path
   style="fill:#00aa00;stroke-width:1.22951"
   d="m 585.80017,450 c 0,-24.00615 0.16469,-33.82684 0.36599,-21.82377 0.20129,12.00307 0.20129,31.64447 0,43.64754 -0.2013,12.00307 -0.36599,2.18238 -0.36599,-21.82377 z"
   id="path90" /><path
   style="fill:#00aa00;stroke-width:1.22951"
   d="m 578.52057,490.4573 c 5.77034,-18.18071 7.15011,-47.65365 3.14047,-67.08263 -1.27767,-6.19107 -2.69088,-12.41545 -3.14047,-13.83197 -0.70847,-2.23221 -0.31476,-2.57549 2.95395,-2.57549 h 3.77138 V 450 493.03279 h -3.77138 c -3.26871,0 -3.66242,-0.34328 -2.95395,-2.57549 z"
   id="path91" /><path
   style="fill:#00aa00;stroke-width:1.22951"
   d="m 580.49168,491.93054 c -1.31724,-0.8345 -1.40031,-1.95983 -0.38433,-5.20658 4.52506,-14.46062 5.27465,-47.77678 1.48788,-66.12956 -1.31388,-6.36776 -2.10387,-12.03886 -1.75555,-12.60246 0.34832,-0.5636 1.70722,-1.02473 3.01977,-1.02473 2.31681,0 2.38645,1.25582 2.38645,43.03279 0,44.4401 -0.0531,44.90875 -4.75422,41.93054 z"
   id="path92" /><path
   style="fill:#00aa00;stroke-width:1.22951"
   d="m 499.18033,578.49585 c 0,-2.5799 1.27015,-3.63744 8.0737,-6.72232 17.83684,-8.08761 38.48484,-25.03547 50.83606,-41.72617 6.16071,-8.32523 14.59281,-23.44331 17.04462,-30.55966 1.2058,-3.49982 1.91889,-3.9959 5.74395,-3.9959 h 4.36724 v 43.03279 43.03279 h -43.03279 -43.03278 z"
   id="path93" /><path
   style="fill:#00aa00;stroke-width:1.22951"
   d="m 438.93443,491.94299 c -10.31503,-3.35024 -19.57269,-10.25386 -24.79685,-18.4915 -3.41564,-5.38591 -3.48184,-5.83373 -3.48184,-23.55325 v -18.06296 l 3.9959,-5.93822 c 13.97514,-20.76816 41.49935,-24.94782 62.17422,-9.44141 5.38714,4.04042 11.28889,12.30741 11.28889,15.81313 0,1.54081 0.96824,3.76972 2.15164,4.95312 1.71448,1.71448 2.15164,4.29282 2.15164,12.69028 0,8.81758 -0.52911,11.66708 -3.23995,17.44849 -4.55716,9.71903 -11.05989,16.38513 -20.53369,21.04955 -6.71708,3.30715 -9.75695,4.05355 -17.38819,4.26946 -5.0864,0.1439 -10.6312,-0.18761 -12.32177,-0.73669 z"
   id="path94" /><path
   style="fill:#00aa00;stroke-width:1.22951"
   d="m 483.25596,419.04137 c -2.33423,-2.71194 -7.03709,-6.53287 -10.45082,-8.49094 l -6.20678,-3.56014 10.7582,-0.0115 10.75819,-0.0115 v 8.60656 c 0,4.73361 -0.13832,8.55972 -0.30737,8.50248 -0.16906,-0.0572 -2.2172,-2.32293 -4.55142,-5.03488 z"
   id="path95" /><path
   style="fill:#00aa00;stroke-width:1.22951"
   d="m 472.80412,489.45015 c 13.0525,-7.48677 21.43691,-21.06904 22.41509,-36.31119 0.30623,-4.77172 -0.009,-10.72473 -0.70037,-13.2289 -0.98844,-3.57982 -0.88741,-4.8599 0.47266,-5.98865 1.47878,-1.22728 1.72981,2.95772 1.72981,28.83788 v 30.2735 l -15.06147,-0.0115 -15.06148,-0.0115 z"
   id="path96" /><path
   style="fill:#00aa00;stroke-width:1.22951"
   d="m 410.65574,416.36163 v -9.39442 l 11.37295,0.0115 11.37295,0.0115 -6.28881,3.60699 c -3.45885,1.98385 -8.57668,6.20614 -11.37296,9.38288 l -5.08413,5.77588 z"
   id="path97" /><path
   style="fill:#00aa00;stroke-width:1.22951"
   d="m 410.65574,483.63837 v -9.39441 l 5.08413,5.77588 c 2.79628,3.17674 7.91411,7.39903 11.37296,9.38288 l 6.28881,3.60699 -11.37295,0.0115 -11.37295,0.0115 z"
   id="path98" /><path
   style="fill:#00aa00;stroke-width:1.22951"
   d="m 320.90164,247.7459 v -19.05738 h 43.64754 c 24.00615,0 43.64754,0.44259 43.64754,0.98352 0,0.54093 -3.45799,1.68335 -7.68442,2.53871 -20.42119,4.13291 -53.5273,17.96865 -71.3981,29.83876 -3.93632,2.61457 -7.39445,4.75377 -7.68475,4.75377 -0.2903,0 -0.52781,-8.57582 -0.52781,-19.05738 z"
   id="path103" /><path
   style="fill:#00aa00;stroke-width:1.22951"
   d="m 275.40984,315.02733 c 0,-2.73998 30.07166,-33.01482 39.36939,-39.63539 l 3.66339,-2.60857 v 21.60012 21.60012 h -21.51639 c -11.83402,0 -21.51639,-0.43033 -21.51639,-0.95628 z"
   id="path104" /><path
   style="fill:#00aa00;stroke-width:1.22951"
   d="m 320.90164,361.57787 v -43.13525 h 43.64754 c 49.65149,0 50.94577,0.3072 32.88934,7.8064 -15.86217,6.58787 -28.88017,15.50955 -42.19103,28.91494 -13.09344,13.18643 -21.63675,25.30192 -27.73696,39.33451 -2.24016,5.15315 -4.64359,9.55954 -5.34095,9.792 -0.85485,0.28495 -1.26794,-13.63067 -1.26794,-42.7126 z"
   id="path105" /><path
   style="fill:#00aa00;stroke-width:1.22951"
   d="m 410.65574,306.7623 c 0,-5.07173 0.29244,-9.22132 0.64986,-9.22132 0.62563,0 22.00602,13.27176 26.98027,16.74785 2.11768,1.47987 0.51965,1.69478 -12.60246,1.69478 h -15.02767 z"
   id="path106" /><path
   style="fill:#00aa00;stroke-width:1.22951"
   d="m 171.76177,313.94326 c 1.94859,-5.07794 13.57886,-25.35359 20.32219,-35.42872 7.87822,-11.77077 21.31391,-28.8042 31.54341,-39.98995 l 6.1842,-6.76229 0.0532,42.11065 0.0532,42.11066 h -29.46961 c -26.9488,0 -29.40263,-0.17453 -28.68665,-2.04035 z"
   id="path107" /><path
   style="fill:#00aa00;stroke-width:1.22951"
   d="m 143.96403,351.94672 -0.11157,-33.5041 h 11.06557 c 6.08607,0 11.06558,0.18514 11.06558,0.41142 0,0.22629 -2.13263,5.65275 -4.73917,12.05882 -6.1169,15.03344 -9.6388,25.65492 -13.80314,41.62812 l -3.36571,12.90984 z"
   id="path108" /><path
   style="fill:#00aa00;stroke-width:1.22951"
   d="m 143.85246,402.68351 c 0,-10.35444 13.55946,-57.18722 21.98734,-75.94171 l 3.72949,-8.29918 h 30.17437 30.17437 v 43.03279 43.03279 h -43.03278 c -37.22656,0 -43.03279,-0.2462 -43.03279,-1.82469 z"
   id="path109" /><path
   style="fill:#00aa00;stroke-width:1.22951"
   d="m 232.44249,358.09426 -0.0654,-39.65164 h 18.42669 18.42668 l -5.97637,8.91394 c -11.07686,16.52145 -21.53964,39.27034 -27.81125,60.46913 l -2.93487,9.92021 z"
   id="path110" /><path
   style="fill:#00aa00;stroke-width:1.22951"
   d="m 143.85246,450 v -43.03279 h 43.19269 43.19268 l -0.73727,5.84017 c -0.40551,3.21209 -1.38374,12.89446 -2.17385,21.51639 -1.37326,14.98549 -0.77654,29.4981 2.17385,52.86885 l 0.73727,5.84017 h -43.19268 -43.19269 z"
   id="path111" /><path
   style="fill:#00aa00;stroke-width:1.22951"
   d="m 232.93627,491.48716 c -0.32621,-0.85009 -0.44717,-20.07653 -0.26879,-42.72541 l 0.32432,-41.17978 42.91213,-0.32353 42.91212,-0.32352 -1.05576,12.61861 c -1.35226,16.16238 -1.35273,44.72628 -9.9e-4,60.8768 l 1.05478,12.60246 h -42.64235 c -33.10828,0 -42.77496,-0.34558 -43.23546,-1.54563 z"
   id="path112" /><path
   style="fill:#00aa00;stroke-width:1.22951"
   d="m 229.13758,449.38525 c 0.003,-6.7623 0.20967,-9.37183 0.45882,-5.79895 0.24915,3.57287 0.24653,9.10566 -0.006,12.29508 -0.25235,3.18942 -0.4562,0.26616 -0.453,-6.49613 z"
   id="path113" /><path
   style="fill:#00aa00;stroke-width:1.22951"
   d="m 141.36991,482.27459 c -0.26707,-24.41713 0.10755,-65.96517 0.59921,-66.45683 0.35961,-0.3596 0.65383,14.93019 0.65383,33.97732 0,19.04713 -0.27664,34.63115 -0.61475,34.63115 -0.33812,0 -0.62535,-0.96824 -0.63829,-2.15164 z"
   id="path114" /><path
   style="fill:#00aa00;stroke-width:1.22951"
   d="m 231.69129,450 c 0,-19.94877 0.16909,-28.10963 0.37575,-18.13525 0.20666,9.97439 0.20666,26.29611 0,36.2705 -0.20666,9.97438 -0.37575,1.81352 -0.37575,-18.13525 z"
   id="path115" /><path
   style="fill:#00aa00;stroke-width:1.22951"
   d="m 325.43962,492.11066 c -0.28885,-0.50718 -1.25965,-3.96517 -2.15734,-7.68443 -2.28618,-9.47197 -2.00764,-62.12787 0.37398,-70.69672 l 1.70864,-6.14754 41.53535,-0.32388 41.53535,-0.32388 -0.90009,13.20552 c -0.49505,7.26304 -1.37871,14.87439 -1.9637,16.91412 -1.37336,4.78862 -1.37336,21.10368 0,25.8923 0.58499,2.03973 1.46815,9.64366 1.96258,16.89762 l 0.89896,13.18902 h -41.23428 c -22.67885,0 -41.4706,-0.41496 -41.75945,-0.92213 z"
   id="path116" /><path
   style="fill:#00aa00;stroke-width:1.22951"
   d="m 398.05791,571.22169 c -30.33195,-13.24266 -55.95763,-38.70355 -69.10459,-68.66021 l -3.10264,-7.06968 h 41.17302 41.17302 v 39.95902 c 0,21.97746 -0.13832,39.95226 -0.30738,39.944 -0.16905,-0.008 -4.5932,-1.88616 -9.83143,-4.17313 z"
   id="path117" /><path
   style="fill:#00aa00;stroke-width:1.22951"
   d="m 395.20674,663.97997 c -22.39587,-5.87329 -46.85897,-16.59561 -64.77641,-28.39187 l -9.52869,-6.27338 v -22.64916 -22.64917 h 43.64754 43.64754 v 41.18853 c 0,47.10366 1.51575,42.57916 -12.98998,38.77505 z"
   id="path118" /><path
   style="fill:#00aa00;stroke-width:1.22951"
   d="m 265.60431,571.40278 c -12.81383,-19.28671 -25.10795,-47.25501 -29.99057,-68.22655 l -1.7891,-7.68443 h 42.30899 42.30899 v 43.03279 43.03279 l -23.05328,-0.0112 -23.05327,-0.0111 z"
   id="path119" /><path
   style="fill:#00aa00;stroke-width:1.22951"
   d="m 320.90164,538.42213 c 0,-30.964 0.38366,-43.00736 1.35971,-42.68201 0.74784,0.24928 2.64478,3.61188 4.21543,7.47244 6.24471,15.34915 14.26275,26.87123 28.85109,41.45957 15.14696,15.14696 26.05076,22.57722 43.65145,29.74574 16.52369,6.72987 14.5482,7.13951 -34.43014,7.13951 h -43.64754 z"
   id="path120" /><path
   style="fill:#00aa00;stroke-width:1.22951"
   d="m 232.44249,541.90574 0.0654,-39.65164 2.93487,9.92021 c 6.27161,21.19879 16.73439,43.94768 27.81125,60.46913 l 5.97637,8.91394 H 250.8037 232.37701 Z"
   id="path121" /><path
   style="fill:#00aa00;stroke-width:1.22951"
   d="m 410.65574,580.32787 c 0,-1.40751 1.7526,-1.40751 6.14754,0 2.74321,0.87853 2.57794,0.99757 -1.53689,1.10695 -2.53586,0.0674 -4.61065,-0.43072 -4.61065,-1.10695 z"
   id="path122" /><path
   style="fill:#00aa00;stroke-width:1.22951"
   d="m 479.81557,581.88315 c 3.21209,-0.25328 8.46824,-0.25328 11.68033,0 3.21209,0.25328 0.58402,0.4605 -5.84016,0.4605 -6.42418,0 -9.05226,-0.20722 -5.84017,-0.4605 z"
   id="path123" /><path
   style="fill:#00aa00;stroke-width:1.22951"
   d="m 430.32787,670.07593 c -5.07172,-0.49038 -11.57275,-1.29155 -14.44672,-1.78036 l -5.22541,-0.88876 V 625.7116 584.01639 h 43.03278 43.03279 v 41.06231 41.06231 l -7.93703,1.38218 c -19.94021,3.47243 -39.92056,4.34496 -58.45641,2.55274 z"
   id="path124" /><path
   style="fill:#00aa00;stroke-width:1.22951"
   d="m 499.18033,624.68785 v -40.67146 h 43.03278 43.03279 v 20.18357 20.18357 l -4.61065,3.64971 c -7.37068,5.83448 -26.91318,17.36727 -38.30611,22.60592 -10.3755,4.77082 -31.40857,12.22171 -39.15291,13.86979 l -3.9959,0.85037 z"
   id="path125" /><path
   style="fill:#00aa00;stroke-width:1.22951"
   d="m 488.11475,579.05396 c 4.3955,-1.28052 8.13013,-2.34766 8.29918,-2.37142 0.16906,-0.0238 0.30738,1.06336 0.30738,2.41582 0,2.2248 -0.79047,2.45067 -8.29918,2.37142 l -8.29918,-0.0876 z"
   id="path126" /><path
   style="fill:#00aa00;stroke-width:1.22951"
   d="m 499.18033,669.58985 c 0,-1.06469 2.46307,-2.30017 6.45492,-3.23778 19.9748,-4.69174 48.04151,-17.25491 68.2377,-30.54443 l 11.37295,-7.48365 v 21.49374 21.49375 h -43.03279 c -36.06936,0 -43.03278,-0.27859 -43.03278,-1.72163 z"
   id="path127" /><path
   style="fill:#00aa00;stroke-width:1.22951"
   d="m 587.70492,603.22432 v -19.20793 h 18.44262 c 10.14344,0 18.43965,0.41496 18.43601,0.92213 -0.0101,1.40929 -16.8909,19.77726 -25.1983,27.41826 -12.88976,11.85576 -11.68033,12.80137 -11.68033,-9.13246 z"
   id="path128" /><path
   style="fill:#00aa00;stroke-width:1.22951"
   d="m 312.8826,623.1286 c -11.52341,-9.23745 -37.47276,-35.65989 -37.47276,-38.15593 0,-0.52595 9.68237,-0.95628 21.51639,-0.95628 h 21.51639 v 21.5164 c 0,11.83401 -0.15057,21.51639 -0.33462,21.51639 -0.18404,0 -2.53547,-1.76426 -5.2254,-3.92058 z"
   id="path129" /><path
   style="fill:#00aa00;stroke-width:1.22951"
   d="m 320.90164,652.2541 c 0,-10.48156 0.22835,-19.05738 0.50744,-19.05738 0.27909,0 3.46044,1.95452 7.06967,4.34338 18.13251,12.00144 51.98874,26.22268 72.03355,30.25754 4.22643,0.85074 7.68442,1.98939 7.68442,2.53032 0,0.54093 -19.64139,0.98352 -43.64754,0.98352 h -43.64754 z"
   id="path130" /><path
   style="fill:#00aa00;stroke-width:1.22951"
   d="m 232.37705,627.66393 v -43.64754 h 19.41948 19.41949 l 4.5247,5.93319 c 6.30432,8.26677 23.94572,25.91081 34.15198,34.15708 l 8.54992,6.90803 v 20.14839 20.1484 h -43.03278 -43.03279 z"
   id="path131" /><path
   style="fill:#00aa00;stroke-width:1.22951"
   d="m 221.08331,658.70902 c -18.32079,-20.65492 -35.16758,-44.7605 -45.11182,-64.54918 l -5.09729,-10.14345 h 29.52191 29.52192 v 41.80328 c 0,22.99181 -0.20882,41.80328 -0.46405,41.80328 -0.25523,0 -4.02203,-4.01127 -8.37067,-8.91393 z"
   id="path132" /><path
   style="fill:#00aa00;stroke-width:1.22951"
   d="M 72.408529,578.17623 C 65.949885,561.39227 55.356544,514.46702 55.338553,502.56148 l -0.01068,-7.06968 h 43.032787 43.03278 v 43.03279 43.03279 h -33.8419 -33.841907 z"
   id="path133" /><path
   style="fill:#00aa00;stroke-width:1.22951"
   d="M 111.7504,661.16803 C 102.81027,647.2577 87.372235,617.03004 80.605468,600.18627 77.522461,592.51207 75,585.73441 75,585.12479 c 0,-0.63082 14.303457,-1.1084 33.19672,-1.1084 h 33.19672 v 43.64754 43.64755 h -11.56193 -11.56194 z"
   id="path134" /><path
   style="fill:#00aa00;stroke-width:1.22951"
   d="m 143.85246,627.66393 v -43.64754 l 11.9877,0.006 11.98771,0.006 5.25823,10.29567 c 11.07428,21.68354 26.86193,44.36398 45.67425,65.61534 l 10.06766,11.37296 h -42.48778 -42.48777 z"
   id="path135" /><path
   style="fill:#00aa00;stroke-width:1.22951"
   d="m 143.97953,548.05328 c 0.0942,-24.825 0.44245,-32.2301 1.34453,-28.58607 3.43624,13.88097 10.16212,35.18199 14.65101,46.40006 2.77662,6.93898 5.32363,13.30793 5.66001,14.15322 0.46234,1.16178 -2.12129,1.53689 -10.5855,1.53689 h -11.19712 z"
   id="path136" /><path
   style="fill:#00aa00;stroke-width:1.22951"
   d="m 189.95902,752.28198 c -12.45352,-10.78453 -26.5988,-24.7506 -37.018,-36.54904 l -9.08856,-10.29166 v -15.83539 -15.8354 h 43.03279 43.03278 v 43.03279 43.03279 l -15.67623,-0.0505 -15.67623,-0.0505 z"
   id="path137" /><path
   style="fill:#00aa00;stroke-width:1.22951"
   d="m 130.44823,688.18225 -10.33047,-13.797 10.17582,-0.35957 c 5.59669,-0.19777 10.40253,-0.13285 10.67963,0.14425 0.2771,0.2771 0.34669,6.64756 0.15465,14.15657 l -0.34917,13.65275 z"
   id="path138" /><path
   style="fill:#00aa00;stroke-width:1.22951"
   d="m 219.17771,774.89754 c -5.38529,-3.88832 -11.39618,-8.29702 -13.35752,-9.79711 l -3.56609,-2.72745 13.83197,-0.0389 13.83196,-0.0389 v 9.83607 c 0,5.40983 -0.2135,9.83606 -0.47444,9.83606 -0.26094,0 -4.88059,-3.18135 -10.26588,-7.06967 z"
   id="path139" /><path
   style="fill:#00aa00;stroke-width:1.22951"
   d="m 232.37705,717.31201 v -42.52406 l 11.37295,9.72991 c 21.64237,18.5157 41.26342,31.88083 63.15707,43.02025 l 11.52431,5.86353 0.006,13.21721 0.006,13.21722 H 275.4106 232.37781 Z"
   id="path140" /><path
   style="fill:#00aa00;stroke-width:1.22951"
   d="m 300.61475,819.63289 c -19.16501,-7.81714 -36.49484,-16.45511 -54.73624,-27.28301 l -13.50146,-8.01433 v -11.02023 -11.02024 h 43.03279 43.03278 v 31.96722 c 0,17.58196 -0.41496,31.94985 -0.92213,31.92864 -0.50717,-0.0212 -8.11475,-2.97233 -16.90574,-6.55805 z"
   id="path141" /><path
   style="fill:#00aa00;stroke-width:1.22951"
   d="M 403.89344,846.28405 C 380.5817,843.2589 348.12419,836.24189 330.43033,830.40202 l -9.52869,-3.14494 v -32.481 -32.481 h 43.64754 43.64754 v 42.41803 c 0,23.32992 -0.13832,42.33514 -0.30738,42.23382 -0.16905,-0.10132 -1.96721,-0.39962 -3.9959,-0.66288 z"
   id="path142" /><path
   style="fill:#00aa00;stroke-width:1.22951"
   d="m 384.83607,842.67961 c -19.49895,-3.51187 -42.60648,-9.06819 -54.71312,-13.15602 l -8.60656,-2.90603 -0.32779,-32.16124 -0.32779,-32.16124 h 43.66796 43.66795 l -0.003,15.06148 c -0.002,8.28381 -0.36641,27.09528 -0.81056,41.80328 -0.78821,26.10167 -0.86907,26.73902 -3.37813,26.62552 -1.41383,-0.064 -10.03986,-1.46154 -19.16895,-3.10575 z"
   id="path143" /><path
   style="fill:#00aa00;stroke-width:1.22951"
   d="m 320.90164,747.54098 c 0,-6.76229 0.32526,-12.29508 0.7228,-12.29508 0.39755,0 7.12125,2.53065 14.94158,5.62367 15.96203,6.31316 40.09295,13.19719 57.90514,16.51909 l 11.8813,2.21581 -42.72541,0.1158 -42.72541,0.1158 z"
   id="path144" /><path
   style="fill:#00aa00;stroke-width:1.22951"
   d="m 416.4959,847.5376 -5.84016,-0.54118 v -42.35067 -42.35067 h 43.03278 43.03279 v 41.65988 41.65988 l -2.76639,0.8495 c -3.18396,0.97772 -68.69464,1.88543 -77.45902,1.07326 z"
   id="path145" /><path
   style="fill:#00aa00;stroke-width:1.22951"
   d="m 499.18033,804.11289 v -41.81781 h 43.05354 43.05355 l -0.32814,31.54311 -0.32813,31.5431 -6.7623,2.34297 c -18.10984,6.2746 -51.83512,14.28221 -73.46311,17.44282 l -5.22541,0.76362 z"
   id="path146" /><path
   style="fill:#00aa00;stroke-width:1.22951"
   d="m 500.40984,758.60656 c 1.01434,-0.65552 3.07385,-1.20033 4.57668,-1.21068 9.53099,-0.0657 60.60304,-15.97339 75.64873,-23.56276 l 4.61065,-2.32572 v 14.16433 14.16434 l -43.34016,-0.0188 c -28.43607,-0.0123 -42.70595,-0.42869 -41.4959,-1.21068 z"
   id="path147" /><path
   style="fill:#00aa00;stroke-width:1.22951"
   d="M 587.70492,793.11564 V 762.29508 H 631.35246 675 v 8.48014 8.48014 l -11.83238,7.66507 c -18.55513,12.0201 -58.38202,31.84006 -72.69631,36.17751 l -2.76639,0.83826 z"
   id="path148" /><path
   style="fill:#00aa00;stroke-width:1.22951"
   d="m 587.70492,745.18808 v -14.64799 l 11.89612,-6.41302 c 20.61838,-11.11506 40.10559,-24.92373 60.1691,-42.63594 6.01669,-5.31157 9.7572,-7.72064 11.98771,-7.72064 H 675 v 43.03279 43.03279 h -43.64754 -43.64754 z"
   id="path149" /><path
   style="fill:#00aa00;stroke-width:1.22951"
   d="m 677.45902,716.80328 v -43.03279 h 43.03278 43.03279 v 11.23698 11.23698 l -6.5674,8.12778 c -10.00842,12.38635 -30.24608,33.17194 -43.73711,44.92129 l -12.10534,10.54255 h -11.82786 -11.82786 z"
   id="path150" /><path
   style="fill:#00aa00;stroke-width:1.22951"
   d="m 765.98361,683.2377 v -9.46721 h 6.9037 6.9037 l -2.17351,3.38115 c -2.08336,3.24091 -8.50866,11.94167 -10.62316,14.38525 -0.5559,0.64241 -1.01073,-3.09222 -1.01073,-8.29919 z"
   id="path151" /><path
   style="fill:#00aa00;stroke-width:1.22951"
   d="m 677.45902,769.74469 v -7.44961 h 10.08196 c 5.54509,0 9.55636,0.46375 8.91394,1.03056 -1.86424,1.64483 -15.76854,11.96954 -17.45902,12.96429 -1.15991,0.68255 -1.53688,-0.92289 -1.53688,-6.54524 z"
   id="path152" /><path
   style="fill:#00aa00;stroke-width:1.22951"
   d="m 474.96894,671.75237 c 0.86224,-0.86224 20.73609,-0.63751 21.61806,0.24446 0.29928,0.29929 -4.61979,0.54415 -10.93126,0.54415 -6.31148,0 -11.12054,-0.35487 -10.6868,-0.78861 z"
   id="path153" /><path
   style="fill:#00aa00;stroke-width:1.22951"
   d="m 422.67726,669.39857 c -0.26652,-0.26652 -2.66544,-0.82978 -5.33092,-1.25169 -2.66549,-0.42191 -5.2613,-1.02168 -5.76847,-1.33283 -0.50717,-0.31115 -0.92213,-19.06791 -0.92213,-41.68169 v -41.11597 h 43.04936 43.04936 l -0.32395,40.88115 -0.32395,40.88115 -9.22131,1.62917 c -8.32432,1.47069 -63.03185,3.16685 -64.20799,1.99071 z"
   id="path154" /><path
   style="fill:#00aa00;stroke-width:1.22951"
   d="m 470.0357,672.85558 c 5.27169,-0.23103 13.57087,-0.22962 18.44263,0.003 4.87175,0.23275 0.55856,0.42177 -9.58489,0.42005 -10.14344,-0.002 -14.12942,-0.19215 -8.85774,-0.42318 z"
   id="path155" /><path
   style="fill:#00aa00;stroke-width:1.22951"
   d="m 422.33607,668.77367 c -4.73361,-0.64236 -9.29816,-1.42333 -10.14345,-1.73549 -1.18766,-0.4386 -1.53688,-9.93536 -1.53688,-41.79467 v -41.22712 h 43.04936 43.04936 l -0.32395,40.85355 -0.32395,40.85355 -8.60656,1.57022 c -11.08034,2.02155 -53.9913,2.99611 -65.16393,1.47996 z"
   id="path156" /><path
   style="fill:#00aa00;stroke-width:1.22951"
   d="m 515.16393,670.14012 c -8.45286,-0.3701 -14.81043,-1.03821 -14.12793,-1.48468 0.68251,-0.44648 4.77074,-1.72645 9.08495,-2.84437 20.46155,-5.30212 46.69,-17.86342 71.7438,-34.35945 l 3.38115,-2.22623 v 21.04304 21.04305 l -27.35656,-0.24922 c -15.0461,-0.13708 -34.27254,-0.55203 -42.72541,-0.92214 z"
   id="path157" /><path
   style="fill:#00aa00;stroke-width:1.22951"
   d="m 416.80328,757.57413 -5.53279,-0.81183 -0.32373,-41.49591 -0.32373,-41.4959 h 43.04914 43.04914 v 41.05401 41.05401 l -4.61065,0.77189 c -6.69036,1.12005 -68.77909,1.88165 -75.30738,0.92373 z"
   id="path158" /><path
   style="fill:#00aa00;stroke-width:1.22951"
   d="m 492.13406,672.91845 c 1.19627,-0.31173 2.8561,-0.29123 3.68852,0.0456 0.83242,0.33679 -0.14635,0.59185 -2.17504,0.56679 -2.02869,-0.0251 -2.70976,-0.30061 -1.51348,-0.61235 z"
   id="path159" /><path
   style="fill:#00aa00;stroke-width:1.22951"
   d="m 420.4918,668.4864 -9.22131,-1.4782 -0.32373,-41.4959 -0.32373,-41.49591 h 43.06571 43.06572 l -0.32395,40.85355 -0.32395,40.85355 -8.60656,1.57433 c -12.29572,2.24915 -55.60037,3.01729 -67.0082,1.18858 z"
   id="path160" /><path
   style="fill:#00aa00;stroke-width:1.22951"
   d="m 420.4918,668.4864 -9.22131,-1.4782 -0.32373,-41.4959 -0.32373,-41.49591 h 43.06571 43.06572 l -0.32395,40.88115 -0.32395,40.88115 -8.60656,1.55986 c -12.31,2.23108 -55.62244,2.97302 -67.0082,1.14785 z"
   id="path161" /><path
   style="fill:#00aa00;stroke-width:1.22951"
   d="m 421.82074,668.83291 c -4.34081,-0.60856 -8.62872,-1.38903 -9.52869,-1.73438 -1.31706,-0.5054 -1.63631,-8.67148 -1.63631,-41.85502 v -41.22712 h 43.04936 43.04936 l -0.32395,40.88115 -0.32395,40.88115 -8.60656,1.55986 c -10.81654,1.9604 -55.15866,2.9693 -65.67926,1.49436 z"
   id="path162" /><path
   style="fill:#00aa00;stroke-width:1.22951"
   d="m 416.80328,757.57799 -5.53279,-0.81569 -0.32373,-41.49591 -0.32373,-41.4959 h 43.04914 43.04914 v 41.04898 41.04897 l -3.9959,0.78634 c -5.71417,1.12446 -69.31155,1.89781 -75.92213,0.92321 z"
   id="path165" /><path
   style="fill:#00aa00;stroke-width:1.22951"
   d="m 489.95902,670.08197 c 3.41666,-1.4682 6.76229,-1.4682 6.76229,0 0,0.67623 -2.07479,1.19062 -4.61065,1.14309 -3.69861,-0.0693 -4.12423,-0.29544 -2.15164,-1.14309 z"
   id="path166" /><path
   style="fill:#00aa00;stroke-width:1.22951"
   d="m 477.37996,672.91845 c 1.19627,-0.31173 2.8561,-0.29123 3.68852,0.0456 0.83242,0.33679 -0.14635,0.59185 -2.17504,0.56679 -2.02869,-0.0251 -2.70975,-0.30061 -1.51348,-0.61235 z"
   id="path168" /><path
   style="fill:#00aa00;stroke-width:1.22951"
   d="m 416.80328,757.57799 -5.53279,-0.81569 -0.32373,-41.49591 -0.32373,-41.4959 h 43.04914 43.04914 v 41.04898 41.04897 l -3.9959,0.78634 c -5.71417,1.12446 -69.31155,1.89781 -75.92213,0.92321 z"
   id="path170" /><path
   style="fill:#00aa00;stroke-width:1.22951"
   d="m 421.10656,668.79602 c -4.05738,-0.63477 -8.06865,-1.41767 -8.91394,-1.73977 -1.18731,-0.45242 -1.53688,-9.96307 -1.53688,-41.81274 v -41.22712 h 43.04936 43.04936 l -0.32395,40.88115 -0.32395,40.88115 -8.60656,1.56383 c -10.89838,1.98026 -56.62746,2.98137 -66.39344,1.4535 z"
   id="path174" /></svg>
